;TYPE=PLATED
;Layer: PTH_Through
;EasyEDA Pro v2.2.47.7, 2026-05-01 19:44:22
;Gerber Generator version 0.3
M48
METRIC,LZ,0000.00000
;Hole size 1 = 0.80000 METRIC
T01C0.80000
;Hole size 2 = 1.00000 METRIC
T02C1.00000
;Hole size 3 = 1.10002 METRIC
T03C1.10002
;Hole size 4 = 1.20000 METRIC
T04C1.20000
%
G05
G90
T01
X35.28621Y-16.51
X45.48579Y-16.51
X44.81121Y-5.207
X55.01079Y-5.207
X61.10679Y-32.766
X50.90721Y-32.766
X18.94279Y-14.605
X8.74321Y-14.605
X23.85621Y-28.702
X34.05579Y-28.702
T02
X26.035Y-7.83374
X26.035Y-2.83375
X34.35988Y-34.036
X24.0599Y-34.036
X45.28188Y-22.606
X34.9819Y-22.606
T03
X6.858Y-3.048
X9.398Y-3.048
X9.144Y-26.416
X11.684Y-26.416
X14.224Y-26.416
X16.764Y-26.416
X68.326Y-37.211
X70.866Y-37.211
X51.054Y-26.289
X51.054Y-23.749
X51.054Y-21.209
X51.054Y-18.669
X51.054Y-16.129
X51.054Y-13.589
X51.054Y-11.049
T04
X60.833Y-8.636
X60.833Y-11.176
X60.833Y-13.716
X60.833Y-16.256
X60.833Y-18.796
X60.833Y-21.336
X60.833Y-23.876
X60.833Y-26.416
M30